<svg style="--at-ember:#ff6a3d;--at-ember-mist:#ffd9c9;--at-ember-ink:#5c2614;--at-ink-200:#cfcfcf;--at-ink-300:#b0b0b0;--at-ink-400:#8d8d8d;--at-ink-500:#6b6b6b;--at-ink-600:#4d4d4e;--at-ink-700:#343435;--at-ink-800:#222223;--at-ink-900:#121213" width="2048" height="2048" viewBox="0 0 2048 2048" fill="none" xmlns="http://www.w3.org/2000/svg">
<rect width="2048" height="2048" fill="var(--at-ember, #ff6a3d)"/>

<g clip-path="url(#clip0_3_3628)">
<path d="M0 0H2048V1822.25V2048H1701.42H1501.4H1252.99H853.922H850.607H497.23H468.454H207.75H81.9221H0V1828.67V1517.11V0Z" fill="var(--at-ember, #ff6a3d)"/>
<path d="M481.3 757.96C494.798 748.735 535.65 695.814 549.419 679.029C582.091 639.787 614.552 600.369 646.8 560.779C672.765 528.56 700.586 491.994 727.439 460.86C744.072 541.024 761.246 621.074 778.96 701.007L793.592 767.807C796.515 781.123 800.633 798.609 802.198 811.979C803.792 825.604 802.548 843.657 803.057 857.746L929.984 1042.51C940.081 1057.21 950.086 1071.97 959.997 1086.8C978.212 1113.82 978.105 1113.96 1004.44 1132.65C1015.26 1140.34 1025.99 1148.18 1036.61 1156.15C1075.67 1185.17 1114.27 1214.8 1152.4 1245.05C1160.34 1241.48 1171.29 1237.18 1178.54 1233.13C1190.03 1226.71 1200.72 1219.44 1212.45 1213.1C1242.58 1206.14 1282.29 1194.66 1311.19 1189.47C1335.06 1194.33 1361.1 1203.2 1384.85 1209.46C1388.18 1210.34 1408.59 1216.03 1410.81 1217.16C1398.77 1232.67 1387.57 1238.21 1371.1 1248.83L1236.95 1246.83L1235.25 1246.74C1217.8 1246.38 1195.98 1245.43 1178.82 1246.29C1171.89 1246.64 1149.47 1255.38 1141.85 1258.18C1123.59 1264.98 1105.29 1271.69 1086.96 1278.3C1100.82 1312.1 1122.17 1349.13 1137.23 1382.97C1139.43 1387.92 1150.72 1409.3 1151.2 1412.79L1151.71 1412.77C1178.08 1432.64 1369.02 1542.53 1374.31 1550.9L1374.59 1552.95C1365.95 1630.61 1358.1 1708.35 1351.02 1786.16C1346.58 1833.69 1340.93 1883.88 1337.49 1931.27L1336.55 1941.53C1309.73 1977.81 1281.86 2013.32 1252.99 2048H853.922H850.607H497.23H468.454H207.75H81.9221H0V1828.67V1517.11C11.6165 1511.36 27.1864 1505.56 39.5083 1500.51L111.09 1471.05C190.94 1437.61 271.129 1404.98 351.644 1373.17C353.937 1371.43 365.041 1358.9 367.88 1355.87C379.657 1343.32 391.595 1330.92 403.691 1318.68C426.048 1296.22 448.516 1273.87 471.097 1251.63C482.258 1240.57 494.862 1228.84 505.255 1217.2C510.374 1211.47 513.304 1199.42 519.493 1191.4C519.765 1190.12 520.332 1188.47 520.727 1187.18C527.857 1187.6 535.008 1187.47 542.118 1186.8C546.842 1179.6 550.573 1172.76 554.724 1165.25C559.678 1157.45 579.035 1123.41 579.745 1115.96C579.93 1107.81 580.596 1098.99 581.293 1090.84C585.247 1044.53 587.301 997.43 592.204 951.264C580.031 928.153 481.539 762.754 481.3 757.96Z" fill="var(--at-ink-900, #121213)"/>
<path d="M351.644 1373.17C353.937 1371.43 365.041 1358.9 367.88 1355.87C379.657 1343.32 391.595 1330.92 403.691 1318.68C426.048 1296.22 448.516 1273.87 471.097 1251.63C482.258 1240.57 494.862 1228.84 505.255 1217.2C510.374 1211.47 513.304 1199.42 519.493 1191.4C516.786 1223.11 509.848 1258.03 504.313 1289.59L483.718 1407.69C475.717 1452.61 466.895 1496.12 464.203 1541.73C463.588 1552.15 462.241 1563.1 461.28 1573.56C453.879 1649.72 450.652 1726.22 451.614 1802.73C452.732 1881.12 459.88 1970.26 468.454 2048H207.75H81.9221H0V1828.67V1517.11C11.6165 1511.36 27.1864 1505.56 39.5083 1500.51L111.09 1471.05C190.94 1437.61 271.129 1404.98 351.644 1373.17Z" fill="var(--at-ink-600, #4d4d4e)"/>
<path d="M0 1517.11C11.6165 1511.36 27.1864 1505.56 39.5083 1500.51L111.09 1471.05C190.94 1437.61 271.129 1404.98 351.644 1373.17C343.007 1390.58 317.198 1428.85 305.999 1446.53L217.453 1587.12L105.326 1766.25C87.878 1794.42 64.9272 1834.69 46.9203 1860.62L0 1828.67V1517.11Z" fill="var(--at-ink-600, #4d4d4e)"/>
<path d="M0 1828.67L46.9203 1860.62L48.2464 1861.45C88.5161 1883.95 131.463 1908.94 172.28 1929.79C173.947 1972.23 196.909 2008.75 207.75 2048H81.9221H0V1828.67Z" fill="var(--at-ink-800, #222223)"/>
<path d="M0 1828.67L46.9203 1860.62L48.2464 1861.45C47.5313 1869.26 51.5588 1891.66 52.9251 1900.52C60.5375 1949.87 71.3053 1999.17 81.9221 2048H0V1828.67Z" fill="var(--at-ink-700, #343435)"/>
<path d="M1151.2 1412.79L1151.71 1412.77C1178.08 1432.64 1369.02 1542.53 1374.31 1550.9L1374.59 1552.95C1365.95 1630.61 1358.1 1708.35 1351.02 1786.16C1346.58 1833.69 1340.93 1883.88 1337.49 1931.27L1336.55 1941.53C1309.73 1977.81 1281.86 2013.32 1252.99 2048H853.922L985.699 1766.04L986.59 1763.99L1151.2 1412.79Z" fill="var(--at-ink-600, #4d4d4e)"/>
<path d="M520.727 1187.18C527.857 1187.6 535.008 1187.47 542.118 1186.8C597.352 1225.07 652.266 1263.79 706.856 1302.98C716.571 1309.87 756.748 1336.22 763.239 1343.2C766.438 1356.01 773.547 1366.95 775.938 1376.31L627.819 1538.81C632.513 1563.95 636.282 1590.25 640.23 1615.61C643.225 1634.73 646.709 1663.89 650.481 1681.58C616.99 1763.86 581.122 1847.4 546.572 1929.37L513.266 2008.77C508.458 2020.35 501.163 2036.62 497.23 2048H468.454C459.88 1970.26 452.732 1881.12 451.614 1802.73C450.652 1726.22 453.879 1649.72 461.28 1573.56C462.241 1563.1 463.588 1552.15 464.203 1541.73C466.895 1496.12 475.717 1452.61 483.718 1407.69L504.313 1289.59C509.848 1258.03 516.786 1223.11 519.493 1191.4C519.765 1190.12 520.332 1188.47 520.727 1187.18Z" fill="var(--at-ember-mist, #ffd9c9)"/>
<path d="M453.416 1735.35C511.714 1670.61 568.468 1602.47 627.819 1538.81C632.513 1563.95 636.282 1590.25 640.23 1615.61C629.269 1623.51 612.961 1633.17 601.265 1640.71C574.461 1658.18 547.52 1675.43 520.445 1692.47C500.045 1705.38 473.844 1724.78 453.416 1735.35Z" fill="var(--at-ink-200, #cfcfcf)"/>
<path d="M1086.96 1278.3C1100.82 1312.1 1122.17 1349.13 1137.23 1382.97C1139.43 1387.92 1150.72 1409.3 1151.2 1412.79L986.59 1763.99L985.699 1766.04C980.602 1758.23 956.302 1731.89 948.374 1722.65C927.102 1697.46 905.666 1672.4 884.068 1647.48C878.919 1641.52 860.836 1619.95 855.67 1616.12C870.159 1598.18 884.87 1580.43 899.802 1562.86L853.651 1458.67C842.36 1433.31 829.64 1406.14 819.357 1380.53C825.451 1376.59 832.37 1372.96 836.334 1366.71C845.444 1362.28 854.199 1357.23 863.808 1353.93C888.693 1345.4 913.728 1337.05 938.621 1328.55L1086.96 1278.3Z" fill="var(--at-ember-mist, #ffd9c9)"/>
<path d="M899.802 1562.86C901.314 1568.55 912.101 1591.16 915.288 1598.38L950.156 1678.14C958.732 1698.01 967.207 1717.91 975.581 1737.86C977.483 1742.37 984.65 1760.51 986.59 1763.99L985.699 1766.04C980.602 1758.23 956.302 1731.89 948.374 1722.65C927.102 1697.46 905.666 1672.4 884.068 1647.48C878.919 1641.52 860.836 1619.95 855.67 1616.12C870.159 1598.18 884.87 1580.43 899.802 1562.86Z" fill="var(--at-ink-200, #cfcfcf)"/>
<path d="M579.745 1115.96C583.682 1113.97 611.476 1067.56 617.399 1059.62C657.821 1005.93 697.65 951.796 736.877 897.225C754.971 872.466 781.628 833.612 800.418 811.498C802.09 865.85 798.532 923.893 796.426 978.621L786.703 1224.66C785.893 1244.04 779.445 1346.42 782.869 1357.76C776.116 1352.47 770.297 1348.06 763.239 1343.2C756.748 1336.22 716.571 1309.87 706.856 1302.98C652.266 1263.79 597.352 1225.07 542.118 1186.8C546.842 1179.6 550.573 1172.76 554.724 1165.25C559.678 1157.45 579.035 1123.41 579.745 1115.96Z" fill="var(--at-ink-800, #222223)"/>
<path d="M855.67 1616.12C860.836 1619.95 878.919 1641.52 884.068 1647.48C905.666 1672.4 927.102 1697.46 948.374 1722.65C956.302 1731.89 980.602 1758.23 985.699 1766.04L853.922 2048H850.607C838.371 1924.29 819.35 1797.91 807.561 1674.25C823.462 1656.06 840.17 1634.91 855.67 1616.12Z" fill="var(--at-ember-mist, #ffd9c9)"/>
<path d="M763.239 1343.2C770.297 1348.06 776.116 1352.47 782.869 1357.76C790.159 1364.03 798.691 1371.03 805.478 1377.68C797.259 1377.42 783.683 1377.39 775.938 1376.31C773.547 1366.95 766.438 1356.01 763.239 1343.2Z" fill="var(--at-ink-200, #cfcfcf)"/>
<path d="M804.944 1378.01C815.552 1374.01 825.553 1370.27 836.334 1366.71C832.37 1372.96 825.451 1376.59 819.357 1380.53C816.043 1379.64 808.617 1378.63 804.944 1378.01Z" fill="var(--at-ink-200, #cfcfcf)"/>
<path d="M725.997 461.134C807.433 409.752 889.68 352.874 970.319 299.601L1080.1 227.018C1100.87 213.247 1126.61 196.968 1146.26 182.013C1161.34 238.178 1181.05 293.62 1197.21 349.473C1201.36 363.803 1215.06 407.139 1216.03 419.907C1234.02 426.008 1254.03 433.391 1271.88 439.059C1308.7 452.245 1348.77 465.487 1385.02 479.413C1385.42 486.547 1388.27 526.765 1387.52 532.079C1386.31 539.247 1392.43 575.237 1393.65 584.205C1395.16 588.526 1396.58 592.723 1398.35 596.951C1411.54 628.525 1425.29 659.859 1439.61 690.938C1445.8 704.288 1463.3 738.035 1466.05 749.377C1463.48 759.047 1457.52 789.47 1454.11 795.04C1449.75 804.669 1434.86 842.661 1434 852.485C1431.27 883.523 1431.51 916.43 1429.55 947.722C1419.6 945.358 1409.36 943.102 1399.61 940.081C1391.99 945.885 1383.79 952.399 1375.91 957.724L1378.93 959.349C1385.93 968.207 1418.68 985.007 1424.95 993.336L1425.22 994.204C1424.64 1014.68 1412.4 1215.11 1410.81 1217.16C1408.59 1216.03 1388.18 1210.34 1384.85 1209.46C1361.1 1203.2 1335.06 1194.33 1311.19 1189.47C1282.29 1194.66 1242.58 1206.14 1212.45 1213.1C1200.72 1219.44 1190.03 1226.71 1178.54 1233.13C1171.29 1237.18 1160.34 1241.48 1152.4 1245.05C1114.27 1214.8 1075.67 1185.17 1036.61 1156.15C1025.99 1148.18 1015.26 1140.34 1004.44 1132.65C978.105 1113.96 978.212 1113.82 959.997 1086.8C950.086 1071.97 940.081 1057.21 929.984 1042.51L803.057 857.746C802.548 843.657 803.792 825.604 802.198 811.979C800.633 798.609 796.515 781.123 793.592 767.807L778.96 701.007C761.246 621.074 744.072 541.024 727.439 460.86C700.586 491.994 672.765 528.56 646.8 560.779C614.552 600.369 582.091 639.787 549.419 679.029C535.65 695.814 494.798 748.735 481.3 757.96C486.165 726.852 488.933 686.961 492.218 655.187L515.226 434.464C521.121 436.647 551.708 439.314 559.686 440.322L659.876 452.76C681.01 455.274 705.36 457.541 725.997 461.134Z" fill="var(--at-ink-800, #222223)"/>
<path d="M1245.92 787.936C1250.38 786.775 1290.45 787.408 1298.07 787.337C1329.26 786.991 1360.46 786.831 1391.66 786.855C1405.13 786.756 1417.95 785.757 1431.43 786.162C1438.69 788.776 1447.35 791.631 1454.11 795.04C1449.75 804.669 1434.86 842.661 1434 852.485C1431.27 883.523 1431.51 916.43 1429.55 947.722C1419.6 945.358 1409.36 943.102 1399.61 940.081C1391.99 945.885 1383.79 952.399 1375.91 957.724L1378.93 959.349C1385.93 968.207 1418.68 985.007 1424.95 993.336L1425.22 994.204C1424.64 1014.68 1412.4 1215.11 1410.81 1217.16C1408.59 1216.03 1388.18 1210.34 1384.85 1209.46C1361.1 1203.2 1335.06 1194.33 1311.19 1189.47C1282.29 1194.66 1242.58 1206.14 1212.45 1213.1C1199.25 1205.66 1185.3 1198.38 1171.77 1191.51C1121.92 1166.18 1072.48 1139.03 1021.86 1115.31L1068.36 932.205C1074.9 910.31 1081.43 873.617 1089.35 853.334C1091.53 847.742 1172.52 817.357 1185.41 812.25C1198.53 807.051 1235.35 790.522 1245.93 788.678L1245.92 787.936Z" fill="var(--at-ink-500, #6b6b6b)"/>
<path d="M1245.92 787.936C1250.38 786.775 1290.45 787.408 1298.07 787.337C1329.26 786.991 1360.46 786.831 1391.66 786.855C1405.13 786.756 1417.95 785.757 1431.43 786.162C1438.69 788.776 1447.35 791.631 1454.11 795.04C1449.75 804.669 1434.86 842.661 1434 852.485C1431.27 883.523 1431.51 916.43 1429.55 947.722C1419.6 945.358 1409.36 943.102 1399.61 940.081C1391.99 945.885 1383.79 952.399 1375.91 957.724C1369.66 958.429 1331.79 950.458 1320.68 949.425C1318.24 948.673 1229.64 959.781 1224.83 961.95C1196.44 974.743 1165.38 993.14 1136.43 1006.62L1134.52 1005.54L1131.09 1007.25C1126.18 1006.4 1075.27 941.198 1068.36 932.205C1074.9 910.31 1081.43 873.617 1089.35 853.334C1091.53 847.742 1172.52 817.357 1185.41 812.25C1198.53 807.051 1235.35 790.522 1245.93 788.678L1245.92 787.936Z" fill="var(--at-ink-300, #b0b0b0)"/>
<path d="M1245.92 787.936C1250.38 786.775 1290.45 787.408 1298.07 787.337C1329.26 786.991 1360.46 786.831 1391.66 786.855C1405.13 786.756 1417.95 785.757 1431.43 786.162C1438.69 788.776 1447.35 791.631 1454.11 795.04C1449.75 804.669 1434.86 842.661 1434 852.485C1431.27 883.523 1431.51 916.43 1429.55 947.722C1419.6 945.358 1409.36 943.102 1399.61 940.081C1398.52 937.742 1397.17 930.791 1396.78 928.058C1367.89 928.577 1363.89 928.368 1335.38 919.587C1334.95 886.729 1336 852.25 1336.12 819.137C1306.42 808.333 1275.82 799.041 1245.93 788.678L1245.92 787.936Z" fill="var(--at-ink-900, #121213)"/>
<path d="M1336.12 819.137C1349.72 823.465 1363.23 828.069 1376.65 832.946C1380.45 854.435 1384.72 875.84 1389.45 897.145C1391.32 905.605 1394.27 920.364 1396.78 928.058C1367.89 928.577 1363.89 928.368 1335.38 919.587C1334.95 886.729 1336 852.25 1336.12 819.137Z" fill="var(--at-ink-600, #4d4d4e)"/>
<path d="M1335.38 919.587C1363.89 928.368 1367.89 928.577 1396.78 928.058C1397.17 930.791 1398.52 937.742 1399.61 940.081C1391.99 945.885 1383.79 952.399 1375.91 957.724C1369.66 958.429 1331.79 950.458 1320.68 949.425C1318.24 948.673 1229.64 959.781 1224.83 961.95C1196.44 974.743 1165.38 993.14 1136.43 1006.62L1134.52 1005.54C1146.4 996.781 1204.28 948.8 1213.98 945.836C1236.88 938.845 1310.33 925.031 1335.38 919.587Z" fill="var(--at-ink-700, #343435)"/>
<path d="M1345.5 980.828C1370.28 985.467 1399.67 989.354 1424.95 993.336L1425.22 994.204C1424.64 1014.68 1412.4 1215.11 1410.81 1217.16C1408.59 1216.03 1388.18 1210.34 1384.85 1209.46C1361.1 1203.2 1335.06 1194.33 1311.19 1189.47C1313.43 1186.42 1341.84 1002.16 1345.5 980.828Z" fill="var(--at-ink-800, #222223)"/>
<path d="M1136.43 1006.62C1165.38 993.14 1196.44 974.743 1224.83 961.95C1229.64 959.781 1318.24 948.673 1320.68 949.425C1328.66 959.559 1338.13 970.98 1345.69 981.223C1321.9 983.741 1143.97 1010.9 1136.43 1006.62Z" fill="var(--at-ink-300, #b0b0b0)"/>
<path d="M1091.97 377.144C1131.68 389.034 1176.49 405.943 1216.03 419.907C1234.02 426.008 1254.03 433.391 1271.88 439.059C1308.7 452.245 1348.77 465.487 1385.02 479.413C1385.42 486.547 1388.27 526.765 1387.52 532.079C1386.31 539.247 1392.43 575.237 1393.65 584.205C1395.16 588.526 1396.58 592.723 1398.35 596.951C1411.54 628.525 1425.29 659.859 1439.61 690.938C1445.8 704.288 1463.3 738.035 1466.05 749.377C1463.48 759.047 1457.52 789.47 1454.11 795.04C1447.35 791.631 1438.69 788.776 1431.43 786.162C1417.95 785.757 1405.13 786.756 1391.66 786.855C1360.46 786.831 1329.26 786.991 1298.07 787.337C1290.45 787.408 1250.38 786.775 1245.92 787.936C1242.76 777.674 1275.18 653.295 1274.17 627.246L1153.76 650.832C1139.02 653.751 1107.12 661.043 1093.56 662.485C1094.89 648.067 1097.37 626.119 1099.77 612.029C1095.19 604.869 1087.4 595.41 1082.09 588.447L1051.6 548.18C1046.43 541.303 1038.04 530.378 1034.07 522.987L1033.79 520.936C1040.66 512.801 1053.37 500.725 1061.17 492.87C1079.05 474.977 1096.84 456.989 1114.53 438.906C1107.81 418.696 1099.22 397.423 1091.97 377.144Z" fill="var(--at-ink-900, #121213)"/>
<path d="M1285.9 580.012C1304.39 563.112 1322.84 542.792 1342.38 524.996C1343.88 543.389 1344.63 562.427 1346.27 580.638C1354.14 581.686 1388.11 586.902 1393 585.226L1393.65 584.205C1395.16 588.526 1396.58 592.723 1398.35 596.951C1411.54 628.525 1425.29 659.859 1439.61 690.938C1445.8 704.288 1463.3 738.035 1466.05 749.377C1463.48 759.047 1457.52 789.47 1454.11 795.04C1447.35 791.631 1438.69 788.776 1431.43 786.162C1417.95 785.757 1405.13 786.756 1391.66 786.855C1360.46 786.831 1329.26 786.991 1298.07 787.337C1290.45 787.408 1250.38 786.775 1245.92 787.936C1242.76 777.674 1275.18 653.295 1274.17 627.246L1276.31 625.793C1276.64 618.038 1283.99 591.078 1285.9 580.012Z" fill="var(--at-ink-700, #343435)"/>
<path d="M1398.35 596.951C1411.54 628.525 1425.29 659.859 1439.61 690.938C1445.8 704.288 1463.3 738.035 1466.05 749.377C1463.48 759.047 1457.52 789.47 1454.11 795.04C1447.35 791.631 1438.69 788.776 1431.43 786.162C1428.38 764.356 1395.38 604.439 1398.35 596.951Z" fill="var(--at-ink-600, #4d4d4e)"/>
<path d="M1285.9 580.012C1304.39 563.112 1322.84 542.792 1342.38 524.996C1343.88 543.389 1344.63 562.427 1346.27 580.638C1326.47 594.2 1297.05 613.365 1276.31 625.793C1276.64 618.038 1283.99 591.078 1285.9 580.012Z" fill="var(--at-ink-200, #cfcfcf)"/>
<path d="M1034.07 522.987L1035.73 522.88C1060.05 528.114 1083.97 534.449 1108.36 539.418C1117.27 541.233 1128.09 540.378 1135.31 541.883C1131.43 541.986 1128.3 541.444 1125.31 543.18C1128.19 546.419 1141.14 549.442 1146.3 551.643C1151.37 553.749 1167.94 561.066 1172.21 562.272L1172.73 562.045C1180.02 565.965 1201.36 566.568 1210.27 568.164C1231.6 571.985 1264.7 574.052 1284.76 580.274L1285.9 580.012C1283.99 591.078 1276.64 618.038 1276.31 625.793L1274.17 627.246L1153.76 650.832C1139.02 653.751 1107.12 661.043 1093.56 662.485C1094.89 648.067 1097.37 626.119 1099.77 612.029C1095.19 604.869 1087.4 595.41 1082.09 588.447L1051.6 548.18C1046.43 541.303 1038.04 530.378 1034.07 522.987Z" fill="var(--at-ink-300, #b0b0b0)"/>
<path d="M1172.21 562.272L1172.73 562.045C1180.02 565.965 1201.36 566.568 1210.27 568.164C1231.6 571.985 1264.7 574.052 1284.76 580.274L1205.93 593.563C1192.5 595.885 1164.79 601.125 1151.76 602.014C1153.51 595.627 1168.22 572.251 1172.21 562.272Z" fill="var(--at-ink-600, #4d4d4e)"/>
<path d="M1146.3 551.643C1151.37 553.749 1167.94 561.066 1172.21 562.272C1168.22 572.251 1153.51 595.627 1151.76 602.014L1151.35 602.216L1150.45 600.7C1142.39 583.765 1131.88 570.829 1146.3 551.643Z" fill="var(--at-ink-600, #4d4d4e)"/>
<path d="M1150.45 600.7L1151.35 602.216C1146.19 603.953 1127.99 607.01 1122.19 608.005L1120.91 607.554L1119.93 608.032C1125.51 604.874 1143.6 601.292 1150.45 600.7Z" fill="var(--at-ink-500, #6b6b6b)"/>
<path d="M1271.88 439.059C1308.7 452.245 1348.77 465.487 1385.02 479.413C1385.42 486.547 1388.27 526.765 1387.52 532.079C1386.31 539.247 1392.43 575.237 1393.65 584.205L1393 585.226C1388.11 586.902 1354.14 581.686 1346.27 580.638C1344.63 562.427 1343.88 543.389 1342.38 524.996C1338.29 522.175 1317.53 515.214 1311.58 513.029C1290.96 505.448 1270.12 498.603 1249.71 490.282C1258.97 471.824 1264.6 458.437 1271.88 439.059Z" fill="var(--at-ink-400, #8d8d8d)"/>
<path d="M1091.97 377.144C1131.68 389.034 1176.49 405.943 1216.03 419.907C1234.02 426.008 1254.03 433.391 1271.88 439.059C1264.6 458.437 1258.97 471.824 1249.71 490.282L1248.36 490.128C1234.51 484.181 1216.56 477.95 1202.25 472.51L1114.53 438.906C1107.81 418.696 1099.22 397.423 1091.97 377.144Z" fill="var(--at-ink-300, #b0b0b0)"/>
<path d="M1114.53 438.906L1202.25 472.51C1216.56 477.95 1234.51 484.181 1248.36 490.128C1240.02 492.916 1192.83 498.545 1181.21 500.099C1143.37 504.874 1105.67 510.654 1068.15 517.433C1057.48 519.348 1045.63 519.256 1035.73 522.88L1034.07 522.987L1033.79 520.936C1040.66 512.801 1053.37 500.725 1061.17 492.87C1079.05 474.977 1096.84 456.989 1114.53 438.906Z" fill="var(--at-ink-700, #343435)"/>
<path d="M1135.31 541.883C1149.42 542.137 1165.15 545.716 1180.7 546.397C1178.18 551.148 1174.74 557.187 1172.73 562.045L1172.21 562.272C1167.94 561.066 1151.37 553.749 1146.3 551.643C1141.14 549.442 1128.19 546.419 1125.31 543.18C1128.3 541.444 1131.43 541.986 1135.31 541.883Z" fill="var(--at-ink-200, #cfcfcf)"/>
<path d="M907.794 499.375C927.939 486.924 950.298 471.122 970.363 457.751L1091.97 377.144C1099.22 397.423 1107.81 418.696 1114.53 438.906C1096.84 456.989 1079.05 474.977 1061.17 492.87C1053.37 500.725 1040.66 512.801 1033.79 520.936L1034.07 522.987C1038.04 530.378 1046.43 541.303 1051.6 548.18L1082.09 588.447C1087.4 595.41 1095.19 604.869 1099.77 612.029C1097.37 626.119 1094.89 648.067 1093.56 662.485L974.111 624.495C967.81 610.429 957.073 591.264 949.646 577.392L907.794 499.375Z" fill="var(--at-ink-200, #cfcfcf)"/>
<path d="M1695.93 1541.46C1719.31 1549.48 1746.58 1562.36 1770.03 1571.69C1828.1 1594.8 1885.81 1620.84 1943.67 1644.28C1974.34 1694.14 2002.02 1746.71 2032.79 1796.6C2037.95 1804.95 2042.66 1814.07 2048 1822.25V2048H1701.42H1501.4H1252.99C1281.86 2013.32 1309.73 1977.81 1336.55 1941.53L1337.49 1931.27C1340.93 1883.88 1346.58 1833.69 1351.02 1786.16C1358.1 1708.35 1365.95 1630.61 1374.59 1552.95L1375.4 1550.57C1381.64 1553.2 1417.77 1571.46 1420.64 1571.26L1421.64 1570.17L1422.05 1572.2C1443.02 1572.12 1690.83 1544 1695.93 1541.46Z" fill="var(--at-ink-600, #4d4d4e)"/>
<path d="M1943.67 1644.28C1974.34 1694.14 2002.02 1746.71 2032.79 1796.6C2037.95 1804.95 2042.66 1814.07 2048 1822.25V2048H1701.42L1850.77 1788.9L1893.41 1714.16C1900.46 1701.91 1909.6 1685.19 1917.48 1673.95C1923.48 1665.37 1935.6 1654.62 1942.92 1645.26L1943.67 1644.28Z" fill="var(--at-ink-800, #222223)"/>
<path d="M1375.4 1550.57C1381.64 1553.2 1417.77 1571.46 1420.64 1571.26L1421.64 1570.17L1422.05 1572.2C1424.01 1588.08 1427.13 1603.71 1429.71 1619.48C1441.81 1693.54 1455.58 1767.53 1467.09 1841.67C1436.67 1862.03 1407.05 1885.34 1376.45 1905.69C1364.02 1913.95 1350.46 1924.14 1337.49 1931.27C1340.93 1883.88 1346.58 1833.69 1351.02 1786.16C1358.1 1708.35 1365.95 1630.61 1374.59 1552.95L1375.4 1550.57Z" fill="var(--at-ink-800, #222223)"/>
<path d="M1337.49 1931.27C1350.46 1924.14 1364.02 1913.95 1376.45 1905.69C1407.05 1885.34 1436.67 1862.03 1467.09 1841.67C1476.7 1910.69 1489.73 1979.31 1501.4 2048H1252.99C1281.86 2013.32 1309.73 1977.81 1336.55 1941.53L1337.49 1931.27Z" fill="var(--at-ink-900, #121213)"/>
<path d="M992.983 70.1553C994.953 70.7883 998.755 72.4274 1000.82 73.2455C1063.33 93.4547 1125.73 113.994 1188.02 134.863C1237.8 151.207 1297.29 169.553 1345.41 188.242L1354.58 190.679C1371.24 221.283 1387.69 252.001 1404.3 282.639C1415.74 303.76 1429.74 324.446 1440.56 345.663C1456.26 376.468 1472.22 407.27 1487.95 438.045C1453.56 451.641 1419.25 465.43 1385.02 479.413C1348.77 465.487 1308.7 452.245 1271.88 439.059C1254.03 433.391 1234.02 426.008 1216.03 419.907C1215.06 407.139 1201.36 363.803 1197.21 349.473C1181.05 293.62 1161.34 238.178 1146.26 182.013C1126.61 196.968 1100.87 213.247 1080.1 227.018L970.319 299.601C889.68 352.874 807.433 409.752 725.997 461.134C705.36 457.541 681.01 455.274 659.876 452.76L559.686 440.322C551.708 439.314 521.121 436.647 515.226 434.464C516.458 431.613 526.549 417.373 528.788 414.099L561.61 365.919L635.846 256.027C646.734 240.027 660.369 218.682 671.935 203.579C708.923 190.146 755.25 169.411 792.126 154.075L992.983 70.1553Z" fill="var(--at-ink-700, #343435)"/>
<path d="M1000.82 73.2456C1063.33 93.4548 1125.73 113.994 1188.02 134.863C1237.8 151.207 1297.29 169.553 1345.41 188.242C1342.96 189.831 1340.55 190.211 1337.66 190.074C1274.28 187.058 1210.49 185.957 1147.17 182.167C1120.15 162.592 1092.01 139.389 1064.91 119.345C1053.97 111.253 1005.6 79.3792 1000.82 73.2456Z" fill="var(--at-ink-600, #4d4d4e)"/>
<path d="M1086.96 1278.3C1105.29 1271.69 1123.59 1264.98 1141.85 1258.18C1149.47 1255.38 1171.89 1246.64 1178.82 1246.29C1195.98 1245.43 1217.8 1246.38 1235.25 1246.74L1236.95 1246.83C1281.71 1290.07 1322.41 1342.84 1367.58 1385.95C1368.33 1386.66 1369.57 1387.61 1370.38 1388.3C1370.71 1394.29 1379.78 1401.61 1383.08 1407.64C1380.89 1438.28 1378.92 1468.94 1377.17 1499.61C1376.4 1513.17 1374.62 1537.74 1375.4 1550.57L1374.59 1552.95L1374.31 1550.9C1369.02 1542.53 1178.08 1432.64 1151.71 1412.77L1151.2 1412.79C1150.72 1409.3 1139.43 1387.92 1137.23 1382.97C1122.17 1349.13 1100.82 1312.1 1086.96 1278.3Z" fill="var(--at-ink-700, #343435)"/>
<path d="M1086.96 1278.3C1105.29 1271.69 1123.59 1264.98 1141.85 1258.18C1149.47 1255.38 1171.89 1246.64 1178.82 1246.29C1195.98 1245.43 1217.8 1246.38 1235.25 1246.74C1212.93 1275.67 1201.1 1309.23 1184.8 1342.47C1174.95 1362.57 1159.7 1392.85 1151.71 1412.77L1151.2 1412.79C1150.72 1409.3 1139.43 1387.92 1137.23 1382.97C1122.17 1349.13 1100.82 1312.1 1086.96 1278.3Z" fill="var(--at-ink-200, #cfcfcf)"/>
<path d="M1370.38 1388.3C1375.52 1391.57 1379.64 1395.45 1384.21 1399.47C1408.17 1408.14 1437.63 1422.57 1461.13 1433.22C1504.44 1452.69 1547.59 1472.49 1590.58 1492.62C1624.05 1508.48 1662.08 1527.78 1695.93 1541.46C1690.83 1544 1443.02 1572.12 1422.05 1572.2L1421.64 1570.17L1420.64 1571.26C1417.77 1571.46 1381.64 1553.2 1375.4 1550.57C1374.62 1537.74 1376.4 1513.17 1377.17 1499.61C1378.92 1468.94 1380.89 1438.28 1383.08 1407.64C1379.78 1401.61 1370.71 1394.29 1370.38 1388.3Z" fill="var(--at-ink-700, #343435)"/>
<path d="M1370.38 1388.3C1375.52 1391.57 1379.64 1395.45 1384.21 1399.47L1385.6 1408.53C1403.14 1462.34 1408.77 1515.97 1421.64 1570.17L1420.64 1571.26C1417.77 1571.46 1381.64 1553.2 1375.4 1550.57C1374.62 1537.74 1376.4 1513.17 1377.17 1499.61C1378.92 1468.94 1380.89 1438.28 1383.08 1407.64C1379.78 1401.61 1370.71 1394.29 1370.38 1388.3Z" fill="var(--at-ink-900, #121213)"/>
<path d="M1385.02 479.413C1419.25 465.43 1453.56 451.641 1487.95 438.045C1489.07 453.594 1490.73 471.127 1491.28 486.553C1492.35 497.338 1497.72 536.548 1494.25 544.656C1485.15 565.904 1474.26 592.745 1463.56 613.187C1469.37 640.851 1473.99 676.781 1480.42 702.815C1475.04 718.459 1470.66 733.508 1466.05 749.377C1463.3 738.035 1445.8 704.288 1439.61 690.938C1425.29 659.859 1411.54 628.525 1398.35 596.951C1396.58 592.723 1395.16 588.526 1393.65 584.205C1392.43 575.237 1386.31 539.247 1387.52 532.079C1388.27 526.765 1385.42 486.547 1385.02 479.413Z" fill="var(--at-ink-900, #121213)"/>
<path d="M1385.02 479.413C1419.25 465.43 1453.56 451.641 1487.95 438.045C1489.07 453.594 1490.73 471.127 1491.28 486.553C1461.03 500.125 1417.7 520.875 1387.52 532.079C1388.27 526.765 1385.42 486.547 1385.02 479.413Z" fill="var(--at-ink-500, #6b6b6b)"/>
<path d="M1375.91 957.724C1383.79 952.399 1391.99 945.885 1399.61 940.081C1409.36 943.102 1419.6 945.358 1429.55 947.722C1446.44 951.829 1464.04 955.852 1480.79 960.294C1528.67 971.327 1577.59 984.548 1625.4 996.542C1621.92 1003.46 1618.37 1010.34 1614.76 1017.18L1614.87 1017.87C1614.35 1026.38 1614.18 1033.61 1614.19 1042.14C1565.93 1029.89 1516.19 1018.22 1468.31 1004.91C1456.98 1001.96 1435.97 995.855 1425.22 994.204L1424.95 993.336C1418.68 985.007 1385.93 968.207 1378.93 959.349L1375.91 957.724Z" fill="var(--at-ink-200, #cfcfcf)"/>
<path d="M1480.79 960.294C1528.67 971.327 1577.59 984.548 1625.4 996.542C1621.92 1003.46 1618.37 1010.34 1614.76 1017.18C1610.42 1016.99 1579.67 1008.88 1573.93 1007.44L1467.63 980.804C1469.66 976.784 1477.81 963.103 1480.79 960.294Z" fill="var(--at-ember-mist, #ffd9c9)"/>
<path d="M1378.93 959.349C1405.06 964.946 1441.13 973.35 1467.06 980.59L1468.31 1004.91C1456.98 1001.96 1435.97 995.855 1425.22 994.204L1424.95 993.336C1418.68 985.007 1385.93 968.207 1378.93 959.349Z" fill="var(--at-ink-400, #8d8d8d)"/>
<path d="M1614.87 1017.87C1625.27 1020.19 1650.64 1025.39 1659.86 1029.17C1659.63 1037.65 1659.41 1040.96 1662.13 1049.24L1660.68 1051.82C1656.18 1053.43 1621.95 1043.92 1614.19 1042.14C1614.18 1033.61 1614.35 1026.38 1614.87 1017.87Z" fill="var(--at-ink-700, #343435)"/>
<path d="M1625.4 996.542C1632.02 998.17 1667.52 1006.24 1671.58 1009.2L1671.57 1011.1C1667.64 1016.3 1662.6 1023.22 1659.86 1029.17C1650.64 1025.39 1625.27 1020.19 1614.87 1017.87L1614.76 1017.18C1618.37 1010.34 1621.92 1003.46 1625.4 996.542Z" fill="var(--at-ink-600, #4d4d4e)"/>
<path d="M554.724 1165.25C550.573 1172.76 546.842 1179.6 542.118 1186.8C535.008 1187.47 527.857 1187.6 520.727 1187.18C529.951 1179.74 544.41 1170.98 554.724 1165.25Z" fill="var(--at-ink-200, #cfcfcf)"/>
<path d="M1671.57 1011.1C1669.72 1029.74 1669.64 1032.32 1662.13 1049.24C1659.41 1040.96 1659.63 1037.65 1659.86 1029.17C1662.6 1023.22 1667.64 1016.3 1671.57 1011.1Z" fill="var(--at-ember-ink, #5c2614)"/>
</g>
<defs>
<clipPath id="clip0_3_3628">
<rect width="2048" height="2048" fill="white"/>
</clipPath>
</defs>
</svg>
